<svg xmlns="http://www.w3.org/2000/svg" width="450" height="400" viewBox="0 0 450 400" fill="none"><g clip-path="url(#clip0_358_30161)"><path d="M310.682 348.197C314.63 348.197 317.831 344.996 317.831 341.048C317.831 337.099 314.63 333.898 310.682 333.898C306.733 333.898 303.532 337.099 303.532 341.048C303.532 344.996 306.733 348.197 310.682 348.197Z" fill="#24126A"></path><path d="M388.18 261.256C388.18 265.194 384.985 268.405 381.03 268.405C377.075 268.405 373.88 265.211 373.88 261.256C373.88 257.301 377.075 254.106 381.03 254.106C384.985 254.106 388.18 257.301 388.18 261.256Z" fill="#24126A"></path><path d="M403.545 315.797C403.545 319.735 400.35 322.946 396.395 322.946C392.44 322.946 389.245 319.752 389.245 315.797C389.245 311.842 392.44 308.647 396.395 308.647C400.35 308.647 403.545 311.842 403.545 315.797Z" fill="#24126A"></path><path d="M249.207 302.326C249.207 306.264 246.013 309.476 242.057 309.476C238.102 309.476 234.908 306.281 234.908 302.326C234.908 298.371 238.102 295.177 242.057 295.177C246.013 295.177 249.207 298.371 249.207 302.326Z" fill="#24126A"></path><path d="M293.356 254.072C293.356 258.011 290.162 261.222 286.206 261.222C282.251 261.222 279.057 258.027 279.057 254.072C279.057 250.118 282.251 246.923 286.206 246.923C290.162 246.923 293.356 250.118 293.356 254.072Z" fill="#24126A"></path><path d="M320.823 280.523L242.294 295.65C241.956 295.684 241.635 295.735 241.331 295.802L241.398 295.279L237.629 294.332V298.794H237.646C237.646 298.963 237.646 299.149 237.697 299.318C238.17 301.059 241.009 302.259 244.035 301.972L322.564 286.845L320.84 280.523H320.823Z" fill="#390898"></path><path d="M386.591 253.599L384.208 255.611C382.145 254.715 379.002 254.918 376.855 256.168L320.924 280.507L328.75 285.019L384.681 260.681C385.999 259.921 386.625 258.94 386.574 258.028H386.591V253.599Z" fill="#0C0B6B"></path><path d="M291.514 248.157C290.128 246.585 286.798 245.96 284.06 246.754C283.739 246.856 283.435 246.957 283.164 247.092C283.029 246.872 282.877 246.653 282.674 246.467C282.184 245.977 281.035 245.284 281.035 245.284V249.729C281.052 250.168 281.237 250.625 281.626 251.064L317.73 284.022L327.601 281.115L291.497 248.157H291.514Z" fill="url(#paint0_linear_358_30161)"></path><path d="M401.55 308.242L400.215 308.715L399.454 310.304C399.167 310.169 398.862 310.05 398.524 309.949L327.686 281.166L322.666 286.861L393.504 315.645C396.226 316.439 399.555 315.814 400.958 314.242C401.381 313.769 401.55 313.262 401.533 312.755H401.55V308.242Z" fill="#0C0B6B"></path><path d="M317.763 284.073L306.134 333.915L305.272 333.476V338.09C305.425 339.527 307.318 340.794 309.921 341.031C312.946 341.301 315.769 340.118 316.259 338.377L328.699 285.104L317.763 284.107V284.073Z" fill="#0C0B6B"></path><path d="M398.541 305.504L332.841 278.799L384.698 256.236C387.014 254.901 387.267 252.872 385.256 251.706L384.715 251.385C382.703 250.219 379.188 250.371 376.872 251.706L325.015 274.27L291.531 243.695C290.145 242.123 286.815 241.498 284.077 242.292C281.356 243.086 280.274 245.013 281.66 246.585L315.144 277.143L242.311 291.171C239.285 291.442 237.223 293.081 237.713 294.822C238.203 296.563 241.026 297.763 244.052 297.476L316.885 283.447L305.357 332.868C304.884 334.608 306.946 336.248 309.955 336.518C312.963 336.789 315.803 335.606 316.293 333.865L327.821 284.445L393.521 311.149C396.242 311.943 399.572 311.318 400.975 309.746C402.378 308.174 401.279 306.248 398.558 305.453L398.541 305.504ZM325.792 278.867L324.575 280.253L321.905 280.016L321.482 278.478L323.882 277.768L325.792 278.867Z" fill="url(#paint1_radial_358_30161)"></path><path d="M323.528 282.957C320.368 282.957 317.798 280.388 317.798 277.228V210.889H329.258V277.228C329.258 280.388 326.689 282.957 323.528 282.957Z" fill="#24126A"></path><path d="M293.052 132.111H293.019C292.883 130.624 291.903 129.204 290.044 128.122L288.844 127.429C284.398 124.86 276.623 125.181 271.485 128.156L235.263 149.063C232.541 150.635 231.121 152.629 231.037 154.556H231.02V160.877C231.02 162.517 232 164.072 234.012 165.238L235.212 165.931C239.657 168.5 247.432 168.179 252.571 165.204L288.793 144.297C291.43 142.776 292.85 140.849 293.019 138.99H293.052V132.111Z" fill="url(#paint2_radial_358_30161)"></path><path d="M235.229 159.779L234.029 159.086C229.583 156.517 230.141 152.038 235.28 149.063L271.502 128.156C276.64 125.198 284.415 124.86 288.861 127.429L290.061 128.122C294.506 130.691 293.948 135.17 288.81 138.145L252.588 159.052C247.449 162.01 239.674 162.348 235.229 159.779Z" fill="url(#paint3_radial_358_30161)"></path><path d="M311.899 188.951L236.04 232.692C232.288 234.855 229.229 232.557 229.229 227.554C229.229 222.551 232.271 216.72 236.04 214.557L322.936 164.427V167.858C322.936 175.987 318.001 185.435 311.899 188.951Z" fill="#515151"></path><path d="M317.494 2.03618C314.857 0.616445 311.46 0.802363 307.758 2.94886L305.493 4.25028C297.11 9.08413 290.315 22.0814 290.315 33.2703V183.272L310.463 171.643V176.41L286.292 196.1L231.375 232.912L308.553 276.535L352.922 242.377L378.191 220.793L393.944 45.2366L317.494 2.03618Z" fill="url(#paint4_radial_358_30161)"></path><path d="M260.954 249.644C260.954 249.644 258.909 244.219 262.966 240.163C267.023 236.106 288.354 227.131 289.909 226.168C291.447 225.205 299.12 219.56 299.12 219.56L301.453 214.32C301.453 214.32 258.132 218.545 257.557 219.222C256.982 219.898 237.274 237.56 237.866 238.337C238.44 239.115 251.438 242.258 251.438 242.258L253.94 245.689L260.954 249.661V249.644Z" fill="#2D2D2D"></path><path d="M384.58 46.3693L382.315 47.6707C373.932 52.5046 367.137 65.5019 367.137 76.6907V226.675L312.88 257.977C309.127 260.14 306.068 265.971 306.068 270.974C306.068 275.977 309.11 278.293 312.88 276.112L388.738 232.371C394.84 228.856 399.776 219.408 399.776 211.278V57.8455C399.776 46.6566 392.981 41.5186 384.597 46.3693H384.58Z" fill="url(#paint5_radial_358_30161)"></path><path d="M240.418 282.129C240.418 282.129 229.245 289.295 225.459 293.521C221.673 297.746 214.185 306.4 217.278 310.524C220.355 314.648 230.767 316.946 241.939 306.653C253.112 296.36 249.934 295.752 259.467 290.648C268.983 285.543 271.603 280 270.471 276.822C269.321 273.645 264.623 268.033 262.053 269.25C259.484 270.467 240.435 282.146 240.435 282.146L240.418 282.129Z" fill="url(#paint6_linear_358_30161)"></path><path d="M294.776 312.248C294.776 312.248 290.771 321.07 288.692 324.011C286.613 326.952 276.606 343.837 281.829 347.724C287.069 351.612 296.991 350.53 304.834 342.012C312.676 333.493 314.417 323.132 316.361 319.718C318.305 316.304 323.105 307.228 320.823 301.989C318.541 296.749 318.034 295.836 318.034 295.836L294.776 312.248Z" fill="url(#paint7_linear_358_30161)"></path><path d="M254.194 186.534C254.194 186.534 220.98 219.289 215.538 235.751C215.538 235.751 213.239 244.641 219.662 251.605C226.085 258.585 239.708 281.369 239.708 281.369C239.708 281.369 249.884 293.673 263.017 283.836C263.017 283.836 268.95 274.354 265.299 268.033C261.648 261.729 251.929 241.565 251.929 241.565C251.929 241.565 273.226 226.912 283.74 223.21C294.253 219.509 299.865 216.652 299.865 216.652C299.865 216.652 297.955 226.574 290.264 236.241C282.573 245.909 269.694 261.458 273.987 272.275C278.263 283.092 280.748 286.439 284.788 292.676C288.81 298.895 292.63 311.893 296.062 313.245C299.493 314.597 315.381 316.152 317.95 305.808C320.52 295.464 312.542 275.368 308.941 268.574C308.941 268.574 351.891 219.036 355.981 213.576C360.072 208.134 267.496 178.117 254.194 186.517V186.534Z" fill="url(#paint8_radial_358_30161)"></path><path d="M265.316 268.033C261.665 261.729 251.946 241.565 251.946 241.565C251.946 241.565 273.243 226.912 283.756 223.21C294.27 219.509 299.882 216.652 299.882 216.652C301.893 213.864 308.417 203.216 311.341 194.782C287.12 187.683 260.82 182.342 254.211 186.517C256.56 192.314 268.899 192.263 268.899 192.263C268.899 192.263 273.514 203.486 276.573 204.923C279.632 206.359 286.951 204.787 286.951 204.787C286.951 204.787 285.768 206.63 280.545 210.399C275.322 214.168 242.649 240.94 242.649 240.94C242.649 240.94 244.509 242.005 253.214 257.723C261.918 273.459 263.034 283.819 263.034 283.819C263.034 283.819 268.967 274.337 265.316 268.016V268.033Z" fill="#160A5B"></path><path opacity="0.6" d="M338.723 203.909C319.522 202.083 297.16 201.914 302.197 211.988C310.733 229.092 327.906 229.853 327.906 229.853C327.804 236.14 301.453 266.478 301.453 266.478L307.589 278.411C313.724 290.343 312.964 312.096 312.964 312.096C315.33 310.811 317.206 308.8 317.967 305.791C320.536 295.448 312.558 275.352 308.958 268.557C308.958 268.557 351.907 219.002 355.998 213.56C357.215 211.954 349.93 208.168 338.74 203.892L338.723 203.909Z" fill="#020230"></path><path d="M220.608 99.1866L225.713 95.2316C225.713 95.2316 253.247 79.9526 262.409 74.9835C267.361 72.2962 272.516 67.513 276.201 63.6764C279.784 59.9411 284.754 57.8453 289.943 57.8284L338.183 57.5918C338.183 57.5918 343.794 66.6003 345.688 68.3581C347.074 69.6595 360.173 80.6286 369.554 89.671C374.743 94.6738 378.529 100.944 380.49 107.874C385.865 126.821 385.78 164.984 386.592 192.28C386.592 192.28 383.262 193.582 375.013 195.34C366.799 197.097 367.813 195.965 367.813 195.965C367.813 195.965 355.508 223.65 338.808 226.337C322.108 229.008 299.611 221.199 295.605 194.985C295.605 194.985 263.051 190.1 254.228 186.483C253.416 186.145 253.129 185.148 253.653 184.438C257.591 179.216 272.263 158.967 273.666 145.767C275.288 130.522 274.781 108.381 273.581 102.33C273.581 102.33 249.039 111.575 241.213 113.215C241.213 113.215 211.329 146.055 198.838 154.996C198.838 154.996 203.114 148.269 194.528 143.705L220.608 99.1866Z" fill="url(#paint9_radial_358_30161)"></path><path opacity="0.6" d="M375.03 195.34C376.281 195.069 377.413 194.816 378.444 194.579L376.703 191.165L331.421 186.365L304.969 187.734L295.875 196.371C296.382 199.176 297.109 201.779 298.022 204.145C298.072 204.145 309.262 205.768 314.468 204.652C319.674 203.537 359.97 209.469 360.054 209.469C364.618 202.912 367.44 196.81 367.795 196.033C367.762 196.252 368.252 196.759 375.03 195.323V195.34Z" fill="#020230"></path><path d="M313.91 179.52C313.86 179.351 313.725 179.232 313.539 179.232C311.358 179.182 297.211 178.759 291.853 176.917C286.055 174.922 279.903 175.277 279.581 175.615C279.26 175.953 269.609 180.044 269.034 181.717C268.527 183.187 267.597 188.325 268.882 190.218C270.167 192.111 270.775 193.379 270.775 193.379L271.789 193.48C271.789 193.48 273.091 196.033 273.818 196.945C274.139 197.334 274.392 197.773 274.612 198.247C275.221 199.565 276.302 201.745 276.742 201.779C277.384 201.847 280.376 202.438 281.136 202.252C281.762 202.083 282.32 200.19 282.066 199.362C281.998 199.126 282.117 198.923 282.353 198.889C283.739 198.669 287.475 198.196 292.63 198.669C298.918 199.244 307.826 195.137 308.637 194.748C308.688 194.731 308.721 194.714 308.772 194.714L317.646 193.92C317.899 193.903 318.069 193.649 318.001 193.396L313.944 179.537L313.91 179.52Z" fill="#FCD1C5"></path><path d="M303.228 85.9865C303.228 85.9865 295.673 113.823 303.668 142.438C303.668 142.438 332.723 88.2344 335.884 79.4286C339.028 70.6229 340.177 64.3862 337.236 61.2257C334.295 58.0651 308.028 74.392 308.028 74.392L303.228 85.9865Z" fill="#F0F6FF"></path><path d="M310.699 129.643C310.699 129.643 316.226 112.708 315.263 107.232C314.299 101.756 312.93 97.8516 312.93 97.8516L317.916 93.2543L320.114 97.8178C320.114 97.8178 331.1 89.7557 331.827 88.2515C331.827 88.2515 322.97 94.3191 320.198 95.2318C320.198 95.2318 318.88 93.0515 317.139 92.3247C315.398 91.598 311.071 97.5135 311.071 97.5135L310.259 107.79L305.916 131.756L307.42 135.322L310.682 129.643H310.699Z" fill="#C4CCD6"></path><path d="M317.156 92.3243C317.156 92.3243 312.237 83.6538 305.831 86.3074C305.831 86.3074 304.8 96.9892 305.662 97.9694C304.225 99.8455 300.659 105.001 300.017 110.679C298.242 126.584 303.634 142.437 303.634 142.437L307.944 134.342C307.944 134.342 309.026 124.589 311.865 114.094C313.961 106.336 312.896 100.184 312.203 97.4793C314.029 95.992 317.139 92.3074 317.139 92.3074L317.156 92.3243Z" fill="url(#paint10_radial_358_30161)"></path><path d="M289.638 41.586C289.638 41.586 288.303 48.3636 288.793 49.6481C289.266 50.9326 290.99 51.7946 290.567 54.4312C290.145 57.0679 291.666 64.9609 292.461 67.5806C292.461 67.5806 291.886 70.3863 292.68 71.2652C293.475 72.1441 294.489 72.1103 295.233 73.4286C295.976 74.7638 296.213 81.5921 298.985 83.8738C301.757 86.1555 305.357 86.6287 307.216 86.1386C309.076 85.6484 310.986 84.2287 310.986 84.2287L315.144 85.9696C315.144 85.9696 336.762 79.8512 336.086 64.6567V63.051C336.086 63.051 337.607 60.9045 338.047 59.5017C338.486 58.0989 342.07 51.7777 340.261 49.0565C340.261 49.0565 348.628 16.0139 322.801 14.0196C296.974 12.0252 293.086 30.1268 289.655 41.6029L289.638 41.586Z" fill="#FCD1C5"></path><path d="M336.07 64.6396V64.4536C334.988 63.8114 333.94 63.4057 333.095 63.5579C330.137 64.0818 330.813 57.9465 330.813 57.9465C330.813 57.9465 330.272 59.062 328.751 66.8875C327.247 74.7129 310.953 84.2116 310.953 84.2116L315.111 85.9524C315.111 85.9524 336.729 79.8341 336.053 64.6396H336.07Z" fill="#E2B1A6"></path><path d="M289.757 27.2534C287.238 32.6112 286.021 39.0507 291.312 43.3775C291.312 43.3775 295.757 44.5944 304.192 40.6733C309.871 38.0366 315.567 39.2028 318.66 40.2507C320.097 40.7409 321.026 42.093 320.993 43.5972L320.874 48.2959C320.841 49.5128 321.567 50.6283 322.683 51.1184L326.604 52.7917L327.382 57.372C327.618 58.7241 329.004 59.5354 330.289 59.0791L331.286 58.7241C331.286 58.7241 331.878 48.5494 340.262 49.0564C340.262 49.0564 347.056 34.3521 340.093 20.8984C333.129 7.44477 314.029 8.40816 309.955 9.9293C304.597 11.9406 305.341 11.6364 302.265 13.5462C296.906 16.8589 292.444 21.5407 289.757 27.2534Z" fill="#AA8383"></path><path opacity="0.6" d="M358.482 130.945C358.482 130.945 354.561 159.779 352.972 167.925L340.329 174.584L362.776 173.215L358.482 130.928V130.945Z" fill="#020230"></path><path d="M340.261 49.0395C340.261 49.0395 342.56 44.0535 343.118 37.2422C332.672 45.5071 320.993 43.5803 320.993 43.5803L320.874 48.2789C320.84 49.4958 321.567 50.6113 322.683 51.1015L326.604 52.7747L327.382 57.3551C327.618 58.7072 329.004 59.5185 330.289 59.0621L331.286 58.7072C331.286 58.7072 331.878 48.5324 340.261 49.0395Z" fill="#936D6D"></path><path opacity="0.6" d="M345.839 74.375C345.839 74.375 339.146 97.3442 337.76 101.772L332.385 101.198L333.348 108.465L304.36 146.68L336.543 109.733L335.275 103.26L340.16 103.784L345.839 74.375Z" fill="#020230"></path><path d="M317.376 199.227C317.376 199.227 385.358 197.013 387.099 195.779C388.84 194.545 389.144 177.052 388.975 166.911C388.856 159.796 388.941 131.976 382.873 112.471C387.639 129.001 385.138 187.43 382.974 190.404C380.811 193.379 316.142 195.086 316.142 195.086C316.835 197.52 317.376 199.21 317.376 199.21V199.227Z" fill="#263649"></path><path d="M183.811 144.855C183.811 144.855 183.558 146.562 180.6 148.252C177.642 149.925 170.07 153.66 168.853 154.742C167.636 155.824 162.176 160.607 162.007 161.232C161.855 161.858 160.216 167.283 160.216 167.621C160.216 167.942 160.756 170.46 160.756 170.46L159.066 178.472C159.066 178.472 156.936 181.582 159.252 182.427C161.568 183.272 162.886 180.872 162.92 180.5C162.92 180.5 166.436 178.827 169.005 176.832C171.574 174.838 181.901 166.539 183.642 167.046C185.4 167.553 183.778 170.528 182.949 171.052C182.104 171.559 176.645 176.917 178.927 180.618C181.225 184.337 182.713 178.522 184.217 177.339C185.721 176.156 189.001 171.508 191.012 170.934C193.023 170.359 196.657 162.872 197.131 159.542C197.604 156.195 199.987 154.049 200.849 152.967C201.711 151.886 199.007 143.587 199.007 143.587L188.798 140.409L185.214 142.742L183.795 144.905L183.811 144.855Z" fill="#FCD1C5"></path><path d="M377.87 101.029C375.74 97.6487 374.76 100.15 371.886 102.922C368.016 106.674 363.164 112.505 360.646 119.874C356.082 133.277 357.722 166.759 359.243 171.559C359.243 171.559 316.666 178.523 313.724 178.404C310.783 178.269 317.375 199.244 317.375 199.244C317.375 199.244 385.358 197.03 387.099 195.796C388.839 194.562 389.144 177.069 388.975 166.928C388.839 158.241 388.992 118.624 377.853 101.029H377.87Z" fill="#334659"></path><path d="M317.376 199.227C317.376 199.227 385.358 197.013 387.099 195.779C388.84 194.545 389.144 177.052 388.975 166.911C388.856 159.796 388.941 131.976 382.873 112.471C387.639 129.001 385.138 187.43 382.974 190.404C380.811 193.379 316.142 195.086 316.142 195.086C316.835 197.52 317.376 199.21 317.376 199.21V199.227Z" fill="#263649"></path><path d="M396.953 191.773H396.919C396.784 190.286 395.803 188.866 393.944 187.785L392.744 187.092C388.299 184.523 380.524 184.844 375.385 187.818L339.163 208.726C336.442 210.298 335.022 212.292 334.937 214.219H334.92V220.54C334.92 222.179 335.901 223.734 337.912 224.901L339.112 225.594C343.558 228.163 351.333 227.841 356.471 224.867L392.693 203.959C395.33 202.438 396.75 200.512 396.919 198.652H396.953V191.773Z" fill="url(#paint11_radial_358_30161)"></path><path d="M339.129 219.424L337.929 218.731C333.484 216.162 334.042 211.684 339.18 208.709L375.402 187.802C380.541 184.844 388.316 184.506 392.761 187.075L393.961 187.768C398.407 190.337 397.849 194.816 392.71 197.79L356.488 218.698C351.35 221.655 343.575 221.993 339.129 219.424Z" fill="url(#paint12_radial_358_30161)"></path><path d="M273.649 397.753C272.195 397.753 270.826 397.398 269.592 396.688C266.736 395.032 265.164 391.736 265.164 387.392V289.735H269.389V387.392C269.389 390.113 270.234 392.175 271.705 393.02C273.175 393.866 275.373 393.578 277.739 392.209L359.057 345.274C364.737 341.995 369.52 333.696 369.52 327.155V229.515H373.746V327.155C373.746 335.302 368.219 344.868 361.17 348.941L279.852 395.877C277.705 397.111 275.592 397.736 273.649 397.736V397.753Z" fill="#4326A2"></path><path d="M65.9158 282.163C64.4621 282.163 63.093 281.808 61.8591 281.098C59.0026 279.442 57.4307 276.146 57.4307 271.802V174.145H61.6563V271.802C61.6563 274.524 62.5014 276.586 63.972 277.431C65.4425 278.276 67.6398 277.988 70.0062 276.619L151.324 229.684C157.004 226.405 161.787 218.106 161.787 211.565V113.925H166.013V211.565C166.013 219.712 160.486 229.278 153.437 233.351L72.119 280.287C69.9724 281.521 67.8595 282.146 65.9158 282.146V282.163Z" fill="#4326A2"></path><path d="M60.5895 209.075L58.5049 212.75L266.237 330.56L268.321 326.885L60.5895 209.075Z" fill="#4326A2"></path><path opacity="0.5" d="M267.868 311.267L46.2412 183.322L165.252 114.617L386.879 242.562L267.868 311.267Z" fill="url(#paint13_linear_358_30161)"></path><path d="M46.2412 172.708V183.322L267.868 311.267L386.879 242.562V231.948L267.868 300.653L46.2412 172.708Z" fill="url(#paint14_radial_358_30161)"></path><path d="M267.868 300.653L46.2412 172.708L165.252 104.003L386.879 231.948L267.868 300.653Z" fill="url(#paint15_radial_358_30161)"></path><path opacity="0.4" d="M280.849 201.002C280.849 201.002 289.368 204.044 295.875 202.962C302.383 201.881 333.703 201.272 333.703 201.272L328.785 198.433L317.798 190.793L290.585 192.635L280.088 196.405L280.866 201.036L280.849 201.002Z" fill="#020230"></path><path d="M313.91 179.52C313.86 179.351 313.725 179.232 313.539 179.232C311.358 179.182 297.211 178.759 291.853 176.917C286.055 174.922 279.903 175.277 279.581 175.615C279.26 175.953 269.609 180.044 269.034 181.717C268.527 183.187 267.597 188.325 268.882 190.218C270.167 192.111 270.775 193.379 270.775 193.379L271.789 193.48C271.789 193.48 273.091 196.033 273.818 196.945C274.139 197.334 274.392 197.773 274.612 198.247C275.221 199.565 276.302 201.745 276.742 201.779C277.384 201.847 280.376 202.438 281.136 202.252C281.762 202.083 282.32 200.19 282.066 199.362C281.998 199.126 282.117 198.923 282.353 198.889C283.739 198.669 287.475 198.196 292.63 198.669C298.918 199.244 307.826 195.137 308.637 194.748C308.688 194.731 308.721 194.714 308.772 194.714L317.646 193.92C317.899 193.903 318.069 193.649 318.001 193.396L313.944 179.537L313.91 179.52Z" fill="#FCD1C5"></path><path d="M377.87 101.029C375.74 97.6487 374.76 100.15 371.886 102.922C368.016 106.674 363.164 112.505 360.646 119.874C356.082 133.277 357.722 166.759 359.243 171.559C359.243 171.559 316.666 178.523 313.724 178.404C310.783 178.269 317.375 199.244 317.375 199.244C317.375 199.244 385.358 197.03 387.099 195.796C388.839 194.562 389.144 177.069 388.975 166.928C388.839 158.241 388.992 118.624 377.853 101.029H377.87Z" fill="url(#paint16_radial_358_30161)"></path><path opacity="0.6" d="M317.375 199.227C317.375 199.227 385.357 197.013 387.098 195.779C388.839 194.545 389.143 177.052 388.974 166.911C388.856 159.796 388.94 131.976 382.872 112.471C387.639 129.001 385.137 187.43 382.974 190.404C380.81 193.379 316.141 195.086 316.141 195.086C316.834 197.52 317.375 199.21 317.375 199.21V199.227Z" fill="#020230"></path><path opacity="0.3" d="M195.525 164.427C195.525 164.427 219.831 145.429 223.313 143.604C226.795 141.762 228.248 140.376 228.248 140.376L220.118 135.677L206.36 141.339L189.034 158.511L162.345 177.424V181.818C162.345 181.818 184.352 172.37 186.82 170.765C189.288 169.159 195.542 164.443 195.542 164.443L195.525 164.427Z" fill="#180D5B"></path><path opacity="0.63" d="M181.023 181.633C181.023 181.633 186.195 177.002 189.541 175.464C192.888 173.925 198.196 169.818 198.838 166.675C199.48 163.531 205.024 156.584 205.024 156.584L196.167 161.689L183.338 169.092L161.99 181.48C161.99 181.48 163.292 182.985 165.996 182.055C168.701 181.142 173.771 177.897 176.138 177.61C178.504 177.323 182.409 176.596 182.409 176.596L181.023 181.616V181.633Z" fill="#2D2D2D"></path><path d="M183.811 144.855C183.811 144.855 183.558 146.562 180.6 148.252C177.642 149.925 170.07 153.66 168.853 154.742C167.636 155.824 162.176 160.607 162.007 161.232C161.855 161.858 160.216 167.283 160.216 167.621C160.216 167.942 160.756 170.46 160.756 170.46L159.066 178.472C159.066 178.472 156.936 181.582 159.252 182.427C161.568 183.272 162.886 180.872 162.92 180.5C162.92 180.5 166.436 178.827 169.005 176.832C171.574 174.838 181.901 166.539 183.642 167.046C185.4 167.553 183.778 170.528 182.949 171.052C182.104 171.559 176.645 176.917 178.927 180.618C181.225 184.337 182.713 178.522 184.217 177.339C185.721 176.156 189.001 171.508 191.012 170.934C193.023 170.359 196.657 162.872 197.131 159.542C197.604 156.195 199.987 154.049 200.849 152.967C201.711 151.886 199.007 143.587 199.007 143.587L188.798 140.409L185.214 142.742L183.795 144.905L183.811 144.855Z" fill="#FCD1C5"></path><path d="M276.015 88.7921C276.015 88.7921 275.643 73.5638 278.229 61.8848C277.519 62.4425 276.826 63.0172 276.201 63.6763C272.516 67.513 267.378 72.313 262.408 74.9835C253.247 79.9356 225.713 95.2316 225.713 95.2316L220.608 99.1865C204.466 111.846 186.414 139.395 183.794 144.855C185.062 143.164 188.307 140.393 194.528 143.705C203.114 148.269 199.024 155.131 199.024 155.131C211.515 146.19 241.212 113.215 241.212 113.215C248.548 111.677 270.555 103.463 273.31 102.432C275.068 97.8513 276.099 93.2372 276.015 88.7921Z" fill="url(#paint17_radial_358_30161)"></path><path opacity="0.6" d="M143.465 199.43L232.474 250.811C233.454 251.368 234.925 251.436 235.77 250.946L288.895 220.286C289.74 219.796 289.638 218.951 288.658 218.393L199.649 167.013C198.669 166.455 197.198 166.387 196.353 166.877L143.228 197.537C142.383 198.027 142.485 198.872 143.465 199.43Z" fill="#020230"></path><path d="M139.477 192.787L144.378 195.356L193.582 166.945C194.41 166.472 195.847 166.522 196.793 167.08L281.661 216.078C282.472 215.621 286.174 213.847 286.174 213.847L284.382 218.529C284.315 218.731 284.146 218.917 283.875 219.086L232.052 249.002C231.224 249.475 229.787 249.425 228.84 248.867L141.995 198.72C141.606 198.5 141.37 198.23 141.268 197.942L139.477 192.787Z" fill="url(#paint18_radial_358_30161)"></path><path d="M140.22 193.599L229.229 244.98C230.209 245.537 231.68 245.605 232.525 245.115L285.65 214.455C286.495 213.965 286.393 213.12 285.413 212.562L196.404 161.182C195.424 160.624 193.953 160.556 193.108 161.046L139.983 191.706C139.138 192.196 139.24 193.041 140.22 193.599Z" fill="url(#paint19_radial_358_30161)"></path><path d="M171.151 186.618L231.409 221.419L234.266 219.762L174.008 184.979L171.151 186.618Z" fill="#24126A"></path><path opacity="0.4" d="M166.588 189.255L237.545 230.224L240.401 228.568L169.444 187.598L166.588 189.255Z" fill="#06033E"></path><path opacity="0.4" d="M162.024 191.891L232.981 232.861L235.837 231.205L164.88 190.235L162.024 191.891Z" fill="#06033E"></path><path d="M157.46 194.528L228.417 235.481L231.274 233.841L160.317 192.872L157.46 194.528Z" fill="#24126A"></path><path opacity="0.4" d="M249.664 220.573L181.006 180.922L178.149 182.579L246.284 221.909L249.14 223.565L251.997 221.909L249.664 220.573Z" fill="#06033E"></path><path opacity="0.4" d="M227.944 219.407L242.142 227.605L244.999 225.965L230.699 217.7L227.944 219.407Z" fill="#06033E"></path><path d="M139.612 191.469L150.869 124.708L149.956 124.319L151.308 123.542C151.579 123.373 151.951 123.39 152.356 123.626L242.278 175.548C243.022 175.97 243.579 177.069 243.444 177.83L232.103 245.115C232.035 245.47 231.866 245.706 231.629 245.808L230.294 246.568L230.057 245.334H230.125L140.744 193.751C140 193.328 139.443 192.23 139.578 191.469H139.612Z" fill="url(#paint20_radial_358_30161)"></path><path d="M241.787 177.373L243.258 176.714C243.427 177.086 243.511 177.492 243.444 177.83L232.102 245.115C232.035 245.47 231.866 245.706 231.629 245.808L230.294 246.568L230.057 245.335H230.125L225.595 242.749L241.754 177.39L241.787 177.373Z" fill="url(#paint21_linear_358_30161)"></path><path d="M139.375 194.562L229.296 246.484C229.989 246.889 230.581 246.653 230.699 245.943L242.041 178.658C242.176 177.897 241.618 176.799 240.874 176.376L150.953 124.454C150.26 124.049 149.668 124.285 149.55 124.995L138.208 192.28C138.073 193.041 138.631 194.14 139.375 194.562Z" fill="url(#paint22_radial_358_30161)"></path></g><defs><linearGradient id="paint0_linear_358_30161" x1="304.766" y1="266.225" x2="271.284" y2="233.856" gradientUnits="userSpaceOnUse"><stop stop-color="#5761D7"></stop><stop offset="0.18" stop-color="#5B65D8"></stop><stop offset="0.39" stop-color="#6A72DE"></stop><stop offset="0.61" stop-color="#8188E8"></stop><stop offset="0.85" stop-color="#A2A6F5"></stop><stop offset="1" stop-color="#BCBEFF"></stop></linearGradient><radialGradient id="paint1_radial_358_30161" cx="0" cy="0" r="1" gradientUnits="userSpaceOnUse" gradientTransform="translate(211.751 265.329) scale(215.964 215.951)"><stop stop-color="#42E3DF"></stop><stop offset="0.4" stop-color="#A92FFB"></stop><stop offset="0.55" stop-color="#881BFA"></stop><stop offset="0.73" stop-color="#6507FA"></stop><stop offset="1" stop-color="#3919BB"></stop></radialGradient><radialGradient id="paint2_radial_358_30161" cx="0" cy="0" r="1" gradientUnits="userSpaceOnUse" gradientTransform="translate(218.326 113.198) scale(47.8343 47.8314)"><stop stop-color="#42E3DF"></stop><stop offset="0.4" stop-color="#A92FFB"></stop><stop offset="0.55" stop-color="#881BFA"></stop><stop offset="0.73" stop-color="#6507FA"></stop><stop offset="1" stop-color="#3919BB"></stop></radialGradient><radialGradient id="paint3_radial_358_30161" cx="0" cy="0" r="1" gradientUnits="userSpaceOnUse" gradientTransform="translate(207.407 110.122) scale(104.83 104.824)"><stop stop-color="#48BDDD"></stop><stop offset="0.4" stop-color="#A92FFB"></stop><stop offset="0.55" stop-color="#881BFA"></stop><stop offset="0.73" stop-color="#6507FA"></stop><stop offset="1" stop-color="#3919BB"></stop></radialGradient><radialGradient id="paint4_radial_358_30161" cx="0" cy="0" r="1" gradientUnits="userSpaceOnUse" gradientTransform="translate(227.589 -8.20616) scale(266.165 266.149)"><stop stop-color="#42E3DF"></stop><stop offset="0.4" stop-color="#A92FFB"></stop><stop offset="0.55" stop-color="#881BFA"></stop><stop offset="0.73" stop-color="#6507FA"></stop><stop offset="1" stop-color="#3919BB"></stop></radialGradient><radialGradient id="paint5_radial_358_30161" cx="0" cy="0" r="1" gradientUnits="userSpaceOnUse" gradientTransform="translate(137.718 48.9045) scale(485.594 485.565)"><stop stop-color="#42E3DF"></stop><stop offset="0.28" stop-color="#A92FFB"></stop><stop offset="0.33" stop-color="#881BFA"></stop><stop offset="0.4" stop-color="#6507FA"></stop><stop offset="0.54" stop-color="#001B24"></stop></radialGradient><linearGradient id="paint6_linear_358_30161" x1="257.997" y1="296.783" x2="207.002" y2="278.578" gradientUnits="userSpaceOnUse"><stop stop-color="#2D0979"></stop><stop offset="1" stop-color="#5B04F7"></stop></linearGradient><linearGradient id="paint7_linear_358_30161" x1="309.786" y1="326.225" x2="272.162" y2="309.711" gradientUnits="userSpaceOnUse"><stop stop-color="#2D0979"></stop><stop offset="1" stop-color="#5B04F7"></stop></linearGradient><radialGradient id="paint8_radial_358_30161" cx="0" cy="0" r="1" gradientUnits="userSpaceOnUse" gradientTransform="translate(149.939 249.982) scale(148.895 148.886)"><stop stop-color="#48BDDD"></stop><stop offset="0.47" stop-color="#A92FFB"></stop><stop offset="0.59" stop-color="#881BFA"></stop><stop offset="0.73" stop-color="#6507FA"></stop><stop offset="1" stop-color="#3919BB"></stop></radialGradient><radialGradient id="paint9_radial_358_30161" cx="0" cy="0" r="1" gradientUnits="userSpaceOnUse" gradientTransform="translate(282.59 56.9326) scale(180.384 180.374)"><stop stop-color="#8EFFEB"></stop><stop offset="0.47" stop-color="#A92FFB"></stop><stop offset="0.59" stop-color="#881BFA"></stop><stop offset="0.73" stop-color="#6507FA"></stop><stop offset="1" stop-color="#3919BB"></stop></radialGradient><radialGradient id="paint10_radial_358_30161" cx="0" cy="0" r="1" gradientUnits="userSpaceOnUse" gradientTransform="translate(178.386 105.66) scale(158.157 158.148)"><stop stop-color="#44D4DE"></stop><stop offset="0.47" stop-color="#A92FFB"></stop><stop offset="0.59" stop-color="#881BFA"></stop><stop offset="0.73" stop-color="#6507FA"></stop><stop offset="1" stop-color="#3919BB"></stop></radialGradient><radialGradient id="paint11_radial_358_30161" cx="0" cy="0" r="1" gradientUnits="userSpaceOnUse" gradientTransform="translate(346.38 177.086) scale(78.0392 78.0346)"><stop stop-color="#B4FFF1"></stop><stop offset="0.28" stop-color="#A92FFB"></stop><stop offset="0.33" stop-color="#881BFA"></stop><stop offset="0.4" stop-color="#6507FA"></stop><stop offset="0.54" stop-color="#0D0C6F"></stop></radialGradient><radialGradient id="paint12_radial_358_30161" cx="0" cy="0" r="1" gradientUnits="userSpaceOnUse" gradientTransform="translate(334.701 172.725) scale(51.2486 51.2456)"><stop stop-color="#48BDDD"></stop><stop offset="0.4" stop-color="#A92FFB"></stop><stop offset="0.55" stop-color="#881BFA"></stop><stop offset="0.73" stop-color="#6507FA"></stop><stop offset="1" stop-color="#3919BB"></stop></radialGradient><linearGradient id="paint13_linear_358_30161" x1="46.2412" y1="212.934" x2="386.879" y2="212.934" gradientUnits="userSpaceOnUse"><stop stop-color="#42E8E0"></stop><stop offset="0.15" stop-color="#42E3DF"></stop><stop offset="0.33" stop-color="#44D4DE"></stop><stop offset="0.52" stop-color="#48BDDD"></stop><stop offset="0.72" stop-color="#4D9BDA"></stop><stop offset="0.93" stop-color="#5471D8"></stop><stop offset="1" stop-color="#5761D7"></stop></linearGradient><radialGradient id="paint14_radial_358_30161" cx="0" cy="0" r="1" gradientUnits="userSpaceOnUse" gradientTransform="translate(42.455 176.443) scale(273.991 273.975)"><stop stop-color="#44D4DE"></stop><stop offset="0.4" stop-color="#A92FFB"></stop><stop offset="0.55" stop-color="#881BFA"></stop><stop offset="0.73" stop-color="#6507FA"></stop><stop offset="1" stop-color="#3919BB"></stop></radialGradient><radialGradient id="paint15_radial_358_30161" cx="0" cy="0" r="1" gradientUnits="userSpaceOnUse" gradientTransform="translate(27.6653 149.705) scale(380.139 380.116)"><stop stop-color="#42E8E0"></stop><stop offset="0.4" stop-color="#A92FFB"></stop><stop offset="0.55" stop-color="#881BFA"></stop><stop offset="0.73" stop-color="#6507FA"></stop><stop offset="1" stop-color="#3919BB"></stop></radialGradient><radialGradient id="paint16_radial_358_30161" cx="0" cy="0" r="1" gradientUnits="userSpaceOnUse" gradientTransform="translate(187.479 85.1753) scale(293.564 293.547)"><stop stop-color="#42E3DF"></stop><stop offset="0.47" stop-color="#A92FFB"></stop><stop offset="0.59" stop-color="#881BFA"></stop><stop offset="0.73" stop-color="#6507FA"></stop><stop offset="0.86" stop-color="#5010DC"></stop><stop offset="1" stop-color="#3919BB"></stop></radialGradient><radialGradient id="paint17_radial_358_30161" cx="0" cy="0" r="1" gradientUnits="userSpaceOnUse" gradientTransform="translate(266.059 51.4734) scale(193.517 193.506)"><stop stop-color="#8EFFEB"></stop><stop offset="0.47" stop-color="#A92FFB"></stop><stop offset="0.59" stop-color="#881BFA"></stop><stop offset="0.73" stop-color="#6507FA"></stop><stop offset="1" stop-color="#3919BB"></stop></radialGradient><radialGradient id="paint18_radial_358_30161" cx="0" cy="0" r="1" gradientUnits="userSpaceOnUse" gradientTransform="translate(136.941 196.928) rotate(180) scale(114.887 114.88)"><stop stop-color="#44D4DE"></stop><stop offset="0.4" stop-color="#A92FFB"></stop><stop offset="0.55" stop-color="#881BFA"></stop><stop offset="0.73" stop-color="#6507FA"></stop><stop offset="1" stop-color="#3919BB"></stop></radialGradient><radialGradient id="paint19_radial_358_30161" cx="0" cy="0" r="1" gradientUnits="userSpaceOnUse" gradientTransform="translate(113.565 206.123) rotate(-180) scale(179.133 179.123)"><stop stop-color="#48BDDD"></stop><stop offset="0.4" stop-color="#A92FFB"></stop><stop offset="0.55" stop-color="#881BFA"></stop><stop offset="0.73" stop-color="#6507FA"></stop><stop offset="1" stop-color="#3919BB"></stop></radialGradient><radialGradient id="paint20_radial_358_30161" cx="0" cy="0" r="1" gradientUnits="userSpaceOnUse" gradientTransform="translate(141.606 114.178) rotate(180) scale(145.058 145.049)"><stop stop-color="#8EFFEB"></stop><stop offset="0.4" stop-color="#A92FFB"></stop><stop offset="0.55" stop-color="#881BFA"></stop><stop offset="0.73" stop-color="#6507FA"></stop><stop offset="1" stop-color="#3919BB"></stop></radialGradient><linearGradient id="paint21_linear_358_30161" x1="243.478" y1="211.65" x2="225.645" y2="211.65" gradientUnits="userSpaceOnUse"><stop stop-color="#5761D7"></stop><stop offset="0.18" stop-color="#5B65D8"></stop><stop offset="0.39" stop-color="#6A72DE"></stop><stop offset="0.61" stop-color="#8188E8"></stop><stop offset="0.85" stop-color="#A2A6F5"></stop><stop offset="1" stop-color="#BCBEFF"></stop></linearGradient><radialGradient id="paint22_radial_358_30161" cx="0" cy="0" r="1" gradientUnits="userSpaceOnUse" gradientTransform="translate(131.853 116.866) scale(174.367 174.357)"><stop stop-color="#6DC7FF"></stop><stop offset="0.4" stop-color="#A92FFB"></stop><stop offset="0.55" stop-color="#881BFA"></stop><stop offset="0.73" stop-color="#6507FA"></stop><stop offset="1" stop-color="#3919BB"></stop></radialGradient><clipPath id="clip0_358_30161"><rect width="357.303" height="396.629" fill="white" transform="translate(46.2412 1.12354)"></rect></clipPath></defs></svg>